<?xml version="1.0" encoding="iso-8859-1"?>
<!-- Generator: Adobe Illustrator 18.1.1, SVG Export Plug-In . SVG Version: 6.00 Build 0)  -->
<svg version="1.1" id="Capa_1" xmlns="http://www.w3.org/2000/svg" xmlns:xlink="http://www.w3.org/1999/xlink" x="0px" y="0px"
	 viewBox="0 0 612 612" style="enable-background:new 0 0 612 612;" xml:space="preserve">
<g>
	<path d="M593.279,88.944H18.722C8.383,88.944,0,97.326,0,107.665v396.67c0,10.339,8.383,18.722,18.722,18.722h574.557
		c10.339,0,18.721-8.383,18.721-18.722v-396.67C612,97.326,603.619,88.944,593.279,88.944z M37.443,150.506l89.473,82.819
		l-89.473,84.684V150.506z M66.507,126.387h478.985L306,348.071L66.507,126.387z M574.557,150.505v167.501l-89.473-84.682
		L574.557,150.505z M37.443,485.613v-116.05l117.011-110.747l138.829,128.506c3.588,3.322,8.153,4.981,12.717,4.981
		c4.565,0,9.13-1.66,12.717-4.981l138.829-128.506L571.87,367.019c0.842,0.799,1.747,1.493,2.687,2.105v116.49H37.443z"/>
</g>
<g>
</g>
<g>
</g>
<g>
</g>
<g>
</g>
<g>
</g>
<g>
</g>
<g>
</g>
<g>
</g>
<g>
</g>
<g>
</g>
<g>
</g>
<g>
</g>
<g>
</g>
<g>
</g>
<g>
</g>
</svg>
