<?xml version="1.0" encoding="UTF-8"?>
<!DOCTYPE svg PUBLIC "-//W3C//DTD SVG 1.1//EN" "http://www.w3.org/Graphics/SVG/1.1/DTD/svg11.dtd">
<!-- Creator: CorelDRAW X8 -->
<svg xmlns="http://www.w3.org/2000/svg" xml:space="preserve" width="2.5398mm" height="2.5398mm" version="1.1" style="shape-rendering:geometricPrecision; text-rendering:geometricPrecision; image-rendering:optimizeQuality; fill-rule:evenodd; clip-rule:evenodd"
viewBox="0 0 254 254"
 xmlns:xlink="http://www.w3.org/1999/xlink">
 <defs>
  <style type="text/css">
   <![CDATA[
    .str0 {stroke:#CBCBCB;stroke-width:150}
    .fil2 {fill:none}
    .fil1 {fill:#CBCBCB}
    .fil0 {fill:white}
   ]]>
  </style>
 </defs>
 <g id="图层_x0020_1">
  <metadata id="CorelCorpID_0Corel-Layer"/>
  <g id="_892510512">
   <path class="fil0" d="M-807 -1273l1856 0c119,0 216,95 216,211l0 2161 -341 428 -1731 0c-119,0 -216,-95 -216,-211l0 -2378c0,-116 97,-211 216,-211z"/>
   <path class="fil1" d="M937 1526l0 -2 0 -215c0,-116 97,-211 215,-211l120 0 5 0 -340 428z"/>
   <line class="fil2 str0" x1="-521" y1="-454" x2="810" y2= "-454" />
   <line class="fil2 str0" x1="-521" y1="-44" x2="810" y2= "-44" />
   <line class="fil2 str0" x1="-521" y1="366" x2="810" y2= "366" />
  </g>
 </g>
</svg>
